UNKNOWN
version=1
nRows=32
nColumns=9
inDegrees=no
endheader
time	time	pelvis_tilt	hip_flexion_r	knee_angle_r	ankle_angle_r	hip_flexion_l	knee_angle_l	ankle_angle_l
    176.00000000	      6.13000000	     -9.64931644	    -21.89772327	     -7.62761610	    -46.78944534	     17.49114436	    -29.46971140	    -41.19020331
    177.00000000	      6.14000000	    -10.07527821	    -23.43829003	     -7.02731232	    -46.99901590	     16.87773830	    -25.10468005	    -41.01599961
    178.00000000	      6.15000000	    -10.43108297	    -24.91468126	     -6.53845063	    -47.00791283	     16.22624274	    -20.80626279	    -40.63823719
    179.00000000	      6.16000000	    -10.75177133	    -26.18523997	     -6.29106625	    -47.19797406	     15.57446714	    -16.64729434	    -40.82001586
    180.00000000	      6.17000000	    -11.15658973	    -27.07672641	     -6.49739681	    -47.31282683	     14.99194748	    -12.85363815	    -40.54006290
    181.00000000	      6.18000000	    -11.79977148	    -27.45072504	     -7.39445459	    -47.38774386	     14.43040961	     -9.60146371	    -39.79871916
    182.00000000	      6.19000000	    -12.84213842	    -27.08999815	     -9.20572704	    -47.37921331	     14.00322926	     -7.17292243	    -38.51960051
    183.00000000	      6.20000000	    -14.08838105	    -26.10620306	    -11.80383084	    -47.59094428	     13.67197049	     -5.70677122	    -37.08703606
    184.00000000	      6.21000000	    -13.00667287	    -27.66099143	    -11.44476002	    -47.27987277	     13.82026846	     -5.03436034	    -36.60609900
    185.00000000	      6.22000000	    -11.45375420	    -29.22383979	    -11.00380933	    -46.83152728	     14.14658183	     -5.29623869	    -36.87220796
    186.00000000	      6.23000000	    -11.95620247	    -28.51581169	    -13.50767578	    -46.85512240	     14.41370055	     -6.56828305	    -37.59080493
    187.00000000	      6.24000000	    -12.05985150	    -28.05914130	    -15.75271006	    -46.88858314	     14.70187697	     -8.29154128	    -39.20299575
    188.00000000	      6.25000000	    -11.90085173	    -27.91111686	    -17.75302407	    -46.98680143	     14.86007932	    -10.15256380	    -42.54483853
    189.00000000	      6.26000000	    -11.57997682	    -27.90536417	    -19.68471892	    -47.42469302	     14.81160068	    -11.90292558	    -45.70276485
    190.00000000	      6.27000000	    -11.16043474	    -27.80064869	    -21.71580649	    -48.27574257	     14.61141042	    -13.41159022	    -49.23283813
    191.00000000	      6.28000000	    -10.66404326	    -27.39310182	    -24.02785823	    -49.68940781	     14.30033159	    -14.66968458	    -52.45255522
    192.00000000	      6.29000000	    -10.03152572	    -26.56461016	    -26.70564460	    -51.71307067	     13.99405126	    -15.82478720	    -54.88483542
    193.00000000	      6.30000000	     -9.25107244	    -25.30704777	    -29.83701724	    -54.35256082	     13.66451243	    -17.01987594	    -56.10251655
    194.00000000	      6.31000000	     -8.32374412	    -23.60574625	    -33.36808634	    -57.44486730	     13.57091401	    -18.49124470	    -56.24321310
    195.00000000	      6.32000000	     -7.30212668	    -21.68378185	    -37.18527069	    -60.85812624	     13.55688959	    -20.22889199	    -55.40512244
    196.00000000	      6.33000000	     -6.33258454	    -19.54178866	    -41.15714434	    -64.24690404	     13.65097563	    -22.13575156	    -54.23303212
    197.00000000	      6.34000000	     -5.48492688	    -17.49506100	    -45.02948295	    -67.49408595	     13.54634922	    -23.98373692	    -52.92055295
    198.00000000	      6.35000000	     -4.86410893	    -15.50856736	    -48.65548555	    -70.10815368	     13.26587659	    -25.62371622	    -51.81404654
    199.00000000	      6.36000000	     -4.49413548	    -13.59715638	    -51.92998528	    -71.53544614	     12.78464611	    -26.94100042	    -51.05065033
    200.00000000	      6.37000000	     -4.33273688	    -11.75413795	    -54.81408432	    -71.25384162	     12.11950600	    -27.87703138	    -50.58778389
    201.00000000	      6.38000000	     -4.29555097	     -9.94334252	    -57.31727696	    -69.04341666	     11.32429491	    -28.41422077	    -50.30312526
    202.00000000	      6.39000000	     -4.29343719	     -8.05706234	    -59.50074028	    -65.03354804	     10.51269912	    -28.57902707	    -49.96625634
    203.00000000	      6.40000000	     -4.22875571	     -6.23697617	    -61.36399623	    -60.22865161	      9.55987570	    -28.39010078	    -49.47314776
    204.00000000	      6.41000000	     -4.09992440	     -4.25621333	    -62.97182959	    -56.08153333	      8.66628415	    -27.92804153	    -48.88243936
    205.00000000	      6.42000000	     -3.87692570	     -2.32842648	    -64.27216212	    -53.68316836	      7.63915413	    -27.23219514	    -48.13825742
    206.00000000	      6.43000000	     -3.63776928	     -0.48250568	    -65.24323364	    -51.61254042	      6.51680989	    -26.40435084	    -47.33716709
    207.00000000	      6.44000000	     -3.40426304	      1.24737386	    -65.86871745	    -50.31692842	      5.26700169	    -25.49919882	    -46.37944628
